<svg id="Layer_1" xmlns="http://www.w3.org/2000/svg" viewBox="0 0 85.04 25.43"><defs><style>.cls-1{fill:#d60b52;}.cls-2{fill:#37404f;}</style></defs><polygon class="cls-1" points="83.74 18.17 79.39 18.17 80.58 21.11 85.04 21.11 83.74 18.17"/><g><path class="cls-2" d="M10.5,6.63c-1.01-.45-2.2-.68-3.57-.68H0v15.15H4.29v-3.96h2.64c1.37,0,2.56-.23,3.57-.68,1.01-.45,1.79-1.1,2.34-1.94,.55-.84,.82-1.83,.82-2.97s-.27-2.13-.82-2.98c-.55-.84-1.33-1.49-2.34-1.95Zm-1.84,6.56c-.45,.38-1.11,.57-1.99,.57h-2.38v-4.44h2.38c.88,0,1.54,.19,1.99,.58,.45,.39,.67,.94,.67,1.65s-.22,1.25-.67,1.63Z"/><polygon class="cls-2" points="38.81 15.02 45.54 15.02 45.54 11.82 38.81 11.82 38.81 9.26 46.45 9.26 46.45 5.95 34.57 5.95 34.57 21.11 42.03 21.11 46.12 25.43 44.96 21.11 46.73 21.11 46.73 17.79 38.81 17.79 38.81 15.02"/><path class="cls-2" d="M62.29,6.88c-1.28-.62-2.76-.93-4.42-.93h-7.17c1.43,1.14,2.86,2.28,4.29,3.42h2.71c1.3,0,2.34,.37,3.13,1.1,.79,.74,1.18,1.75,1.18,3.05s-.39,2.32-1.18,3.05c-.79,.74-1.83,1.1-3.13,1.1h-2.71c-1.43,1.14-2.86,2.28-4.29,3.42h7.17c1.66,0,3.13-.31,4.42-.93,1.28-.62,2.28-1.5,2.99-2.64,.71-1.14,1.06-2.48,1.06-4s-.35-2.86-1.06-4c-.71-1.14-1.7-2.02-2.99-2.64Z"/><polygon class="cls-2" points="78.33 5.95 74.11 5.95 67.42 21.11 71.79 21.11 72.98 18.16 74.24 15 76.19 10.15 78.13 15 82.34 15 78.33 5.95"/><path class="cls-2" d="M29.96,14.43c.51-.82,.77-1.77,.77-2.87s-.27-2.13-.82-2.98c-.55-.84-1.33-1.49-2.34-1.95-1.01-.45-2.2-.68-3.57-.68h-7.36l2.18,3.36c1.68,0,4.34,.02,4.92,.02,.88,0,1.54,.19,1.99,.58,.45,.39,.67,.94,.67,1.65s-.22,1.25-.67,1.63c-.45,.38-1.11,.57-1.99,.57h-2.02l1.26,1.95,3.5,5.39h4.56l-3.27-4.76c.95-.46,1.68-1.1,2.2-1.92Z"/></g><g><path class="cls-2" d="M1.34,1.47l-.47,.48v.67H.49V.03h.37V1.48L2.27,.03h.42L1.59,1.2l1.18,1.43h-.43l-1-1.15Z"/><path class="cls-2" d="M6.01,1.98h-1.38l-.29,.65h-.38L5.14,.03h.37l1.18,2.6h-.39l-.29-.65Zm-.13-.3l-.56-1.27-.56,1.27h1.12Z"/><path class="cls-2" d="M10.61,.03V2.63h-.3l-1.56-1.94v1.94h-.37V.03h.3l1.56,1.94V.03h.37Z"/><path class="cls-2" d="M13.14,2.48c-.21-.12-.37-.27-.49-.48-.12-.2-.18-.43-.18-.68s.06-.48,.18-.68c.12-.2,.28-.36,.49-.48s.45-.17,.71-.17c.2,0,.39,.03,.56,.1,.17,.07,.31,.17,.43,.3l-.24,.23c-.2-.21-.44-.31-.73-.31-.19,0-.37,.04-.52,.13s-.28,.21-.36,.36c-.09,.15-.13,.32-.13,.51s.04,.36,.13,.51c.09,.15,.21,.27,.36,.36,.16,.09,.33,.13,.52,.13,.29,0,.53-.1,.73-.31l.24,.23c-.12,.13-.26,.23-.43,.3-.17,.07-.36,.1-.56,.1-.26,0-.49-.06-.7-.17Z"/><path class="cls-2" d="M18.55,2.3v.32h-1.89V.03h1.83V.35h-1.46v.8h1.3v.32h-1.3v.84h1.51Z"/><path class="cls-2" d="M20.45,.03h.37V2.3h1.41v.32h-1.78V.03Z"/><path class="cls-2" d="M25.62,1.98h-1.38l-.29,.65h-.38L24.75,.03h.37l1.18,2.6h-.39l-.29-.65Zm-.13-.3l-.56-1.27-.56,1.27h1.12Z"/><path class="cls-2" d="M29.72,2.63l-.56-.8c-.07,0-.12,0-.16,0h-.64v.79h-.37V.03h1.01c.34,0,.6,.08,.79,.24,.19,.16,.29,.38,.29,.66,0,.2-.05,.37-.15,.51s-.24,.24-.42,.31l.62,.87h-.41Zm-.2-1.26c.12-.1,.19-.25,.19-.43s-.06-.33-.19-.43c-.12-.1-.3-.15-.54-.15h-.63V1.52h.63c.23,0,.41-.05,.54-.15Z"/><path class="cls-2" d="M31.98,.03h.37V2.63h-.37V.03Z"/><path class="cls-2" d="M36.08,1.98h-1.38l-.29,.65h-.38L35.21,.03h.37l1.18,2.6h-.39l-.29-.65Zm-.13-.3l-.56-1.27-.56,1.27h1.12Z"/><path class="cls-2" d="M42.4,1.98h-1.38l-.29,.65h-.38L41.52,.03h.37l1.18,2.6h-.39l-.29-.65Zm-.13-.3l-.56-1.27-.56,1.27h1.12Z"/><path class="cls-2" d="M44.76,.03h1.09c.28,0,.52,.05,.73,.16s.38,.26,.5,.46c.12,.2,.18,.42,.18,.68s-.06,.48-.18,.68c-.12,.2-.28,.35-.5,.46s-.46,.16-.73,.16h-1.09V.03Zm1.07,2.28c.21,0,.4-.04,.55-.12,.16-.08,.28-.2,.37-.34,.09-.15,.13-.32,.13-.51s-.04-.36-.13-.51c-.09-.15-.21-.26-.37-.34-.16-.08-.34-.12-.55-.12h-.7v1.95h.7Z"/><path class="cls-2" d="M52.71,.03l-.87,2.6h-.39l-.71-2.07-.71,2.07h-.4L48.77,.03h.38l.7,2.11L50.58,.03h.34l.72,2.12L52.36,.03h.35Z"/><path class="cls-2" d="M54.9,2.48c-.21-.12-.38-.27-.5-.48-.12-.2-.18-.43-.18-.68s.06-.48,.18-.68c.12-.2,.28-.36,.5-.48,.21-.12,.45-.17,.71-.17s.49,.06,.7,.17,.38,.27,.49,.48c.12,.2,.18,.43,.18,.68s-.06,.48-.18,.68c-.12,.2-.28,.36-.49,.48-.21,.11-.45,.17-.7,.17s-.5-.06-.71-.17Zm1.22-.29c.15-.09,.27-.21,.36-.36,.09-.15,.13-.32,.13-.51s-.04-.36-.13-.51c-.09-.15-.21-.27-.36-.36-.15-.09-.32-.13-.51-.13s-.36,.04-.52,.13-.28,.21-.36,.36c-.09,.15-.13,.32-.13,.51s.04,.36,.13,.51c.09,.15,.21,.27,.36,.36,.15,.09,.33,.13,.52,.13s.36-.04,.51-.13Z"/><path class="cls-2" d="M59.7,1.47l-.47,.48v.67h-.37V.03h.37V1.48L60.63,.03h.42l-1.11,1.17,1.18,1.43h-.43l-1-1.15Z"/><path class="cls-2" d="M64.37,1.98h-1.38l-.29,.65h-.38L63.5,.03h.37l1.18,2.6h-.39l-.29-.65Zm-.13-.3l-.56-1.27-.56,1.27h1.12Z"/><path class="cls-2" d="M67.15,2.48c-.21-.12-.37-.27-.49-.48-.12-.2-.18-.43-.18-.68s.06-.48,.18-.68c.12-.2,.28-.36,.49-.48s.45-.17,.71-.17c.2,0,.39,.03,.56,.1,.17,.07,.31,.17,.43,.3l-.24,.23c-.2-.21-.44-.31-.73-.31-.19,0-.37,.04-.52,.13s-.28,.21-.36,.36c-.09,.15-.13,.32-.13,.51s.04,.36,.13,.51c.09,.15,.21,.27,.36,.36,.16,.09,.33,.13,.52,.13,.29,0,.53-.1,.73-.31l.24,.23c-.12,.13-.26,.23-.43,.3-.17,.07-.36,.1-.56,.1-.26,0-.49-.06-.7-.17Z"/><path class="cls-2" d="M71.52,1.47l-.47,.48v.67h-.37V.03h.37V1.48L72.46,.03h.42l-1.11,1.17,1.18,1.43h-.43l-1-1.15Z"/><path class="cls-2" d="M76.19,1.98h-1.38l-.29,.65h-.38L75.32,.03h.37l1.18,2.6h-.39l-.29-.65Zm-.13-.3l-.56-1.27-.56,1.27h1.12Z"/></g></svg>
